<?xml version="1.0" standalone="no"?>
<!DOCTYPE svg PUBLIC "-//W3C//DTD SVG 20010904//EN"
 "http://www.w3.org/TR/2001/REC-SVG-20010904/DTD/svg10.dtd">
<svg version="1.0" xmlns="http://www.w3.org/2000/svg"
 width="813.000000pt" height="138.000000pt" viewBox="0 0 813.000000 138.000000"
 preserveAspectRatio="xMidYMid meet">

<g transform="translate(0.000000,138.000000) scale(0.100000,-0.100000)"
fill="#000000" stroke="none">
<path d="M3300 1065 l0 -295 -50 0 c-35 0 -50 -4 -50 -14 0 -8 -11 -13 -30
-12 -29 1 -30 3 -30 48 0 56 -27 118 -50 118 -19 0 -50 -30 -50 -48 0 -7 -4
-12 -9 -12 -6 0 -12 -48 -14 -107 -6 -170 -29 -437 -37 -443 -5 -3 -11 -37
-14 -75 -3 -39 -8 -94 -12 -122 l-6 -53 -144 0 c-121 0 -144 -2 -144 -15 0 -8
-4 -15 -10 -15 -5 0 -10 7 -10 15 0 8 -6 15 -14 15 -8 0 -17 15 -20 35 -6 29
-11 35 -31 35 -16 0 -25 -6 -25 -15 0 -8 -7 -15 -15 -15 -9 0 -15 9 -15 25 0
24 -2 25 -75 25 -73 0 -75 -1 -75 -25 0 -16 -6 -25 -15 -25 -8 0 -15 7 -15 15
0 9 -9 15 -25 15 -20 0 -25 -6 -31 -35 -3 -20 -12 -35 -20 -35 -8 0 -14 -7
-14 -15 0 -8 -4 -15 -10 -15 -5 0 -10 7 -10 15 0 13 -41 15 -305 15 -264 0
-305 -2 -305 -15 0 -8 -4 -15 -10 -15 -5 0 -10 7 -10 15 0 8 -7 15 -15 15 -8
0 -17 14 -21 35 -5 28 -11 35 -30 35 -15 0 -24 -6 -24 -15 0 -8 -7 -15 -15
-15 -9 0 -15 9 -15 25 0 24 -2 25 -75 25 -73 0 -75 -1 -75 -25 0 -16 -6 -25
-15 -25 -8 0 -15 7 -15 15 0 9 -9 15 -25 15 -20 0 -25 -6 -31 -35 -3 -20 -12
-35 -20 -35 -8 0 -14 -6 -14 -12 0 -10 -43 -12 -187 -10 -157 2 -198 6 -251
23 -35 12 -72 19 -83 16 -11 -3 -19 0 -19 8 0 17 -33 25 -112 25 -44 0 -68 -4
-71 -12 -4 -10 -6 -10 -6 0 -1 6 -8 12 -16 12 -8 0 -15 5 -15 10 0 6 -53 10
-140 10 -87 0 -140 -4 -140 -10 0 -5 -6 -10 -14 -10 -8 0 -17 -8 -19 -17 -4
-17 -5 -17 -6 0 -1 15 -11 17 -68 15 l-68 -2 63 -3 c46 -3 62 -8 62 -18 0 -8
7 -15 15 -15 8 0 15 7 15 15 0 8 7 15 15 15 8 0 15 5 15 10 0 6 50 10 130 10
80 0 130 -4 130 -10 0 -5 7 -10 15 -10 8 0 15 -4 15 -10 0 -5 7 -10 15 -10 8
0 15 5 15 10 0 11 101 14 138 4 12 -4 22 -13 22 -21 0 -11 6 -14 23 -9 12 3
49 -3 82 -14 49 -15 96 -19 258 -22 152 -2 197 0 197 10 0 6 6 12 14 12 8 0
17 15 20 35 7 34 36 51 36 20 0 -9 9 -15 25 -15 20 0 25 5 25 25 0 24 2 25 65
25 63 0 65 -1 65 -25 0 -20 5 -25 25 -25 16 0 25 6 25 15 0 31 29 14 36 -20 3
-20 12 -35 20 -35 8 0 14 -7 14 -15 0 -8 9 -15 20 -15 11 0 20 7 20 15 0 13
39 15 295 15 256 0 295 -2 295 -15 0 -8 9 -15 20 -15 11 0 20 7 20 15 0 8 6
15 14 15 8 0 17 15 20 35 7 34 36 51 36 20 0 -9 9 -15 25 -15 20 0 25 5 25 25
0 24 2 25 65 25 63 0 65 -1 65 -25 0 -20 5 -25 25 -25 16 0 25 6 25 15 0 31
29 14 36 -20 3 -20 12 -35 20 -35 8 0 14 -7 14 -15 0 -8 9 -15 20 -15 11 0 20
7 20 15 0 13 23 15 145 15 l145 0 0 49 c0 28 5 53 10 56 6 3 10 35 10 71 0 35
4 72 10 82 9 17 29 242 37 431 5 108 23 163 56 169 25 5 47 -50 47 -119 0 -52
2 -60 14 -50 8 7 25 9 40 5 20 -5 26 -2 26 10 0 13 12 16 66 16 76 0 94 -12
94 -64 0 -25 4 -36 15 -36 11 0 15 11 15 40 0 33 3 40 20 40 18 0 20 7 20 55
0 64 23 118 47 113 26 -5 51 -59 52 -110 1 -26 7 -62 15 -80 10 -23 18 -108
26 -278 6 -134 15 -249 20 -254 6 -6 10 -20 10 -33 0 -14 6 -23 15 -23 8 0 15
9 15 20 0 17 7 20 40 20 33 0 40 -3 40 -20 0 -13 7 -20 20 -20 13 0 20 7 20
20 0 17 7 20 44 20 26 0 46 -5 49 -12 3 -10 9 -10 26 -1 11 7 30 13 41 13 15
0 20 7 20 26 0 20 4 25 16 20 22 -9 64 4 64 19 0 7 10 15 22 18 30 8 68 -2 68
-18 0 -15 42 -28 64 -19 12 5 16 0 16 -20 0 -19 5 -26 20 -26 11 0 30 -6 41
-13 17 -9 23 -9 26 0 3 8 23 13 49 13 37 0 44 -3 44 -20 0 -13 7 -20 20 -20
13 0 20 7 20 20 0 17 7 20 40 20 33 0 40 -3 40 -20 0 -11 7 -20 15 -20 9 0 15
9 15 23 0 13 4 27 10 33 5 5 14 120 20 254 8 170 16 255 26 278 8 18 14 54 15
80 1 51 26 105 52 110 24 5 47 -49 47 -113 0 -48 2 -55 20 -55 17 0 20 -7 20
-40 0 -29 4 -40 15 -40 11 0 15 11 15 36 0 52 18 64 94 64 54 0 66 -3 66 -16
0 -12 6 -15 26 -10 15 4 32 2 40 -5 12 -10 14 -2 14 50 0 69 22 124 47 119 33
-6 51 -61 56 -169 8 -189 28 -414 37 -431 6 -10 10 -47 10 -82 0 -36 5 -68 10
-71 6 -3 10 -28 10 -56 l0 -49 145 0 c122 0 145 -2 145 -15 0 -8 9 -15 20 -15
11 0 20 7 20 15 0 8 6 15 14 15 8 0 17 15 20 35 7 34 36 51 36 20 0 -9 9 -15
25 -15 20 0 25 5 25 25 0 24 2 25 65 25 63 0 65 -1 65 -25 0 -20 5 -25 25 -25
16 0 25 6 25 15 0 31 29 14 36 -20 3 -20 12 -35 20 -35 8 0 14 -7 14 -15 0 -8
9 -15 20 -15 11 0 20 7 20 15 0 13 39 15 295 15 256 0 295 -2 295 -15 0 -8 9
-15 20 -15 11 0 20 7 20 15 0 8 6 15 14 15 8 0 17 15 20 35 7 34 36 51 36 20
0 -9 9 -15 25 -15 20 0 25 5 25 25 0 24 2 25 65 25 63 0 65 -1 65 -25 0 -20 5
-25 25 -25 16 0 25 6 25 15 0 31 29 14 36 -20 3 -20 12 -35 20 -35 8 0 14 -6
14 -12 0 -10 45 -12 197 -10 162 3 209 7 258 22 33 11 70 17 83 14 16 -5 22
-2 22 9 0 8 10 17 23 21 36 10 137 7 137 -4 0 -5 7 -10 15 -10 8 0 15 5 15 10
0 6 7 10 15 10 8 0 15 5 15 10 0 6 50 10 130 10 80 0 130 -4 130 -10 0 -5 7
-10 15 -10 8 0 15 -7 15 -15 0 -8 7 -15 15 -15 8 0 15 7 15 15 0 10 16 15 63
18 l62 3 -67 2 c-56 2 -67 -1 -71 -16 -4 -16 -5 -16 -6 1 0 9 -8 17 -16 17 -8
0 -15 5 -15 10 0 6 -53 10 -140 10 -87 0 -140 -4 -140 -10 0 -5 -6 -10 -14
-10 -8 0 -17 -6 -19 -13 -4 -9 -6 -9 -6 1 -1 8 -22 12 -68 12 -80 0 -113 -8
-113 -25 0 -8 -8 -11 -19 -8 -11 3 -48 -4 -83 -16 -53 -17 -94 -21 -251 -23
-144 -2 -187 0 -187 10 0 6 -6 12 -14 12 -8 0 -17 15 -20 35 -6 29 -11 35 -31
35 -16 0 -25 -6 -25 -15 0 -8 -7 -15 -15 -15 -9 0 -15 9 -15 25 0 24 -2 25
-75 25 -73 0 -75 -1 -75 -25 0 -16 -6 -25 -15 -25 -8 0 -15 7 -15 15 0 9 -9
15 -24 15 -19 0 -25 -7 -30 -35 -4 -21 -13 -35 -21 -35 -8 0 -15 -7 -15 -15 0
-8 -4 -15 -10 -15 -5 0 -10 7 -10 15 0 13 -41 15 -305 15 -264 0 -305 -2 -305
-15 0 -8 -4 -15 -10 -15 -5 0 -10 7 -10 15 0 8 -6 15 -14 15 -8 0 -17 15 -20
35 -6 29 -11 35 -31 35 -16 0 -25 -6 -25 -15 0 -8 -7 -15 -15 -15 -9 0 -15 9
-15 25 0 24 -2 25 -75 25 -73 0 -75 -1 -75 -25 0 -16 -6 -25 -15 -25 -8 0 -15
7 -15 15 0 9 -9 15 -25 15 -20 0 -25 -6 -31 -35 -3 -20 -12 -35 -20 -35 -8 0
-14 -7 -14 -15 0 -8 -4 -15 -10 -15 -5 0 -10 7 -10 15 0 13 -23 15 -145 15
l-145 0 0 44 c0 25 -4 48 -10 51 -5 3 -10 39 -10 80 0 40 -4 75 -9 77 -9 3
-32 261 -38 441 -2 59 -8 107 -14 107 -5 0 -9 6 -9 13 0 18 -32 47 -51 47 -23
0 -49 -64 -49 -118 0 -45 -1 -47 -30 -48 -19 -1 -30 4 -30 12 0 10 -15 14 -50
14 l-50 0 0 295 c0 256 -2 295 -15 295 -13 0 -15 -39 -15 -295 0 -203 -3 -295
-11 -295 -20 0 -38 -27 -42 -66 l-4 -39 -1 43 c-2 35 -5 42 -22 42 -17 0 -20
7 -20 50 0 57 -26 120 -50 120 -19 0 -50 -30 -50 -48 0 -7 -4 -12 -10 -12 -5
0 -10 -25 -10 -56 0 -31 -6 -68 -14 -82 -11 -20 -18 -97 -25 -276 -6 -137 -15
-254 -20 -260 -5 -6 -11 -20 -14 -31 -4 -18 -5 -18 -6 3 -1 20 -6 22 -51 22
-43 0 -50 -3 -50 -20 0 -11 -4 -20 -10 -20 -5 0 -10 9 -10 20 0 18 -7 20 -54
20 -34 0 -56 -5 -59 -12 -4 -11 -7 -11 -18 0 -7 6 -21 12 -31 12 -13 0 -18 8
-18 26 0 24 -3 26 -30 21 -35 -7 -60 13 -60 49 0 22 -4 24 -45 24 -41 0 -45
-2 -45 -24 0 -36 -25 -56 -60 -49 -27 5 -30 3 -30 -21 0 -18 -5 -26 -18 -26
-10 0 -24 -6 -31 -12 -11 -10 -14 -10 -18 0 -3 7 -25 12 -59 12 -47 0 -54 -2
-54 -20 0 -11 -4 -20 -10 -20 -5 0 -10 9 -10 20 0 17 -7 20 -50 20 -45 0 -50
-2 -51 -22 -1 -21 -2 -21 -6 -3 -3 11 -9 25 -14 31 -5 6 -14 123 -20 260 -7
179 -14 256 -25 276 -8 14 -14 51 -14 82 0 31 -4 56 -10 56 -5 0 -10 6 -10 13
0 18 -32 47 -51 47 -23 0 -49 -65 -49 -120 0 -43 -3 -50 -20 -50 -17 0 -20 -7
-22 -42 l-1 -43 -4 39 c-4 39 -22 66 -42 66 -8 0 -11 92 -11 295 0 256 -2 295
-15 295 -13 0 -15 -39 -15 -295z m800 -787 c0 -8 -14 -13 -35 -13 -21 0 -35 5
-35 13 0 7 14 12 35 12 21 0 35 -5 35 -12z"/>
</g>
</svg>
